<?xml version="1.0" standalone="no"?>
<!DOCTYPE svg PUBLIC "-//W3C//DTD SVG 20010904//EN"
 "http://www.w3.org/TR/2001/REC-SVG-20010904/DTD/svg10.dtd">
<svg version="1.0" xmlns="http://www.w3.org/2000/svg"
 width="256.000000pt" height="256.000000pt" viewBox="0 0 256.000000 256.000000"
 preserveAspectRatio="xMidYMid meet">
<metadata>
Created by potrace 1.14, written by Peter Selinger 2001-2017
</metadata>
<g transform="translate(0.000000,256.000000) scale(0.100000,-0.100000)"
fill="#000000" stroke="none">
<path d="M1485 2547 c-72 -29 -119 -70 -153 -133 -6 -12 -43 -140 -81 -285
-80 -298 -96 -404 -81 -544 5 -49 10 -94 10 -99 0 -4 -28 18 -62 50 -133 123
-265 181 -433 191 -188 11 -354 -54 -490 -191 -182 -183 -233 -404 -161 -696
14 -58 30 -136 36 -175 15 -110 12 -354 -7 -470 -24 -152 -20 -156 132 -132
118 20 354 22 472 6 43 -6 123 -22 178 -36 283 -72 512 -19 690 161 55 55 93
104 118 152 43 83 44 90 18 118 -17 19 -18 27 -8 79 6 31 16 57 22 57 7 0 20
9 30 20 24 26 10 73 -21 78 -17 2 -23 14 -31 60 -9 51 -8 60 9 82 13 16 17 32
13 50 -11 46 -85 160 -147 226 l-61 65 69 -6 c38 -4 79 -8 90 -10 62 -13 239
18 491 85 144 38 276 76 293 85 42 22 93 75 116 121 14 28 19 60 19 114 0 64
-4 82 -27 122 -49 82 -142 138 -229 138 l-28 0 32 62 c28 54 32 70 31 142 0
67 -5 90 -26 131 -58 111 -154 169 -279 170 -66 0 -84 -4 -137 -32 l-62 -32 0
28 c0 86 -56 180 -136 227 -53 31 -159 42 -209 21z m151 -108 c84 -40 103
-117 64 -253 -19 -66 -24 -73 -152 -205 -141 -145 -193 -219 -244 -351 l-29
-74 -3 100 c-4 126 5 175 83 466 70 258 71 262 108 296 47 44 110 52 173 21z
m498 -232 c69 -38 115 -131 101 -206 -4 -20 -17 -54 -30 -76 -26 -45 -331
-349 -415 -414 -85 -67 -211 -125 -322 -150 -40 -9 -37 -5 144 177 102 103
188 195 192 205 8 25 -36 69 -61 61 -10 -4 -102 -90 -205 -192 -182 -181 -186
-184 -177 -144 25 111 83 237 150 322 58 75 366 386 408 412 68 43 144 45 215
5z m231 -497 c34 -13 75 -61 86 -103 22 -81 -26 -164 -109 -191 -88 -29 -457
-125 -522 -136 -36 -6 -110 -10 -164 -8 l-100 3 74 29 c132 51 206 103 352
245 l138 134 87 23 c83 21 109 22 158 4z"/>
</g>
</svg>
